<svg xmlns="http://www.w3.org/2000/svg" viewBox="0 0 321.88 414.28"><defs><style>.cls-1{fill:#ed2224;}</style></defs><g id="Layer_2" data-name="Layer 2"><g id="Layer_1-2" data-name="Layer 1"><g id="g3910"><path id="path3909" class="cls-1" d="M238.19,225.75c5.39-15.37,8.12-45.58,3-60.09-62.52,1.28-126.66,5-161.21-11-25.19-11.6-34.13-18.06-45.26-23.55-49.26-24.36-29.52,18.76-30.37,56-.73,31.79-20,74.56,29.24,58.3,23.23-7.67,17.83-9.95,45.74-22.13C112.78,208.76,177.13,225.09,238.19,225.75Z"/><path id="path3911" class="cls-1" d="M137.56,175.83c.55-29.4-6.74-66.62,23.71-137.89,34.82-81.47,74.46-12.16,41.28,26.5-38.37,44.72-22.33,85.75-24.83,108.58-4.22,14.91-26.69,8.59-40.16,2.81Z"/><path id="path3911-1" class="cls-1" d="M277.56,389.09c-11.66,30.88-84.16,45.5-42-29.15,42.74-75.73-52.33-170,14.37-298.75C292.15-20.38,365.16,83.6,288,86.63,223.59,148.89,310.5,301.84,277.56,389.09Z"/><path id="path3931" class="cls-1" d="M166,390.43C153,419,78.24,407.5,128.41,367c34-27.46,15.52-104.92,10.43-155.55,6.38-2.36,36.57-10.65,36.79-.43C186.21,272.19,198.42,318.73,166,390.43Z"/></g></g></g></svg>